<?xml version="1.0" encoding="UTF-8"?>
<svg id="a" data-name="Layer 1" xmlns="http://www.w3.org/2000/svg" width="321" height="241" viewBox="0 0 321 241">
  <defs>
    <style>
      .b {
        fill: #91d8f7;
        stroke: #91d8f7;
      }

      .b, .c, .d {
        stroke-miterlimit: 10;
      }

      .c {
        fill: #2ba0da;
        stroke: #2ba0da;
      }

      .d {
        fill: #35b6e9;
        stroke: #35b6e9;
      }

      .e {
        fill: #31a8df;
        stroke-width: 0px;
      }
    </style>
  </defs>
  <ellipse class="e" cx="160.5" cy="85.59" rx="87.83" ry="46.71"/>
  <path class="d" d="M160.5,170.69v69.81h-.84c-.42,0-.84,0-1.25,0-.23,0-.47,0-.7,0-.17,0-.35,0-.52,0-.39,0-.79,0-1.18-.01l-1.18-.02c-.39,0-.78-.01-1.17-.03-.39,0-.78-.01-1.17-.03-.39,0-.78-.02-1.17-.03-.39-.01-.77-.03-1.17-.04-.39-.01-.77-.03-1.16-.04s-.78-.03-1.17-.05c-.39-.01-.77-.03-1.15-.05-.39-.02-.77-.03-1.16-.06-.38-.02-.77-.04-1.15-.06-.37-.02-.75-.04-1.12-.06-.37-.02-.75-.04-1.12-.06-.37-.03-.75-.05-1.12-.07-.37-.03-.74-.06-1.12-.08-.37-.03-.74-.06-1.11-.08-.37-.02-.74-.05-1.12-.08-.37-.03-.74-.06-1.1-.08-.37-.03-.74-.06-1.11-.09-.37-.03-.74-.06-1.1-.1s-.74-.06-1.1-.1c-.36-.03-.73-.07-1.1-.1-.37-.03-.73-.07-1.1-.11-.36-.03-.73-.07-1.09-.11-.37-.03-.73-.08-1.09-.11-.36-.04-.73-.08-1.09-.12l-1.09-.12c-.36-.04-.72-.08-1.09-.12-.36-.05-.72-.09-1.08-.13-.36-.05-.72-.09-1.08-.14-.36-.04-.72-.09-1.07-.14-.36-.04-.72-.09-1.07-.14l-1.07-.14c-.36-.05-.72-.1-1.07-.15-.36-.06-.73-.1-1.09-.16-.36-.06-.73-.1-1.09-.16-.36-.06-.72-.11-1.09-.17-.36-.06-.72-.12-1.09-.17-.36-.06-.72-.11-1.08-.17-.36-.06-.72-.12-1.08-.18-.36-.06-.72-.12-1.07-.18s-.71-.12-1.07-.19c-.36-.06-.71-.12-1.07-.19-.36-.06-.7-.13-1.06-.19-.36-.07-.71-.13-1.06-.2-.37-.07-.74-.14-1.12-.21-.37-.08-.74-.14-1.11-.22-.37-.07-.74-.14-1.11-.22-.37-.07-.74-.14-1.1-.22-.37-.08-.74-.15-1.1-.23-.36-.08-.73-.16-1.09-.23-.37-.08-.73-.16-1.1-.24-.36-.08-.72-.16-1.09-.24-.36-.08-.72-.16-1.09-.24-.36-.08-.72-.17-1.08-.25-.37-.09-.74-.18-1.11-.26-.39-.1-.78-.19-1.17-.28-.39-.1-.77-.19-1.16-.28-.39-.1-.77-.19-1.15-.29-.38-.1-.77-.2-1.15-.3-.38-.1-.76-.2-1.14-.3-.38-.1-.76-.21-1.14-.31-.38-.1-.75-.2-1.13-.3-.37-.1-.75-.21-1.13-.32-.37-.1-.75-.21-1.12-.32-.4-.12-.8-.23-1.2-.34-.42-.12-.83-.25-1.25-.36-.41-.12-.82-.25-1.23-.37-.41-.13-.82-.25-1.23-.38-.41-.13-.82-.25-1.22-.39-.41-.13-.81-.26-1.22-.39-.41-.13-.81-.26-1.21-.39-.41-.13-.8-.27-1.2-.4-.4-.14-.8-.27-1.2-.41-.46-.16-.91-.32-1.37-.48-.46-.16-.91-.32-1.37-.48-.46-.17-.9-.33-1.36-.5-.45-.17-.9-.33-1.35-.5-.45-.17-.89-.33-1.34-.5-.44-.17-.89-.34-1.33-.52-.44-.17-.89-.34-1.32-.52-.48-.19-.95-.39-1.43-.58-.53-.21-1.05-.43-1.58-.65-.52-.22-1.05-.44-1.57-.67-.52-.23-1.04-.45-1.55-.67-.52-.23-1.03-.46-1.54-.69-.51-.23-1.02-.46-1.52-.7-.55-.26-1.1-.52-1.64-.78-.65-.31-1.31-.63-1.95-.94-.65-.32-1.29-.64-1.92-.96-.64-.32-1.27-.65-1.9-.98-.62-.33-1.25-.66-1.86-1-.82-.44-1.63-.89-2.43-1.34-.9-.52-1.8-1.04-2.68-1.57-.89-.52-1.75-1.06-2.61-1.6-1.4-.88-2.77-1.78-4.1-2.68C13.08,193.24.5,175.09.5,155.43v-69.81c0,19.66,12.58,37.8,33.74,52.24,1.33.91,2.7,1.8,4.1,2.68.86.54,1.73,1.07,2.61,1.6.88.53,1.78,1.05,2.68,1.57.8.45,1.61.9,2.43,1.34.61.34,1.23.67,1.86,1,.62.33,1.26.65,1.9.98.63.32,1.27.64,1.92.96.64.32,1.3.63,1.95.94.54.26,1.09.52,1.64.78.51.23,1.01.46,1.52.7.51.23,1.02.46,1.54.69.51.23,1.03.45,1.55.67.52.22,1.04.45,1.57.67.53.22,1.05.44,1.58.65.48.19.95.39,1.43.58.44.18.88.35,1.32.52.44.17.89.34,1.33.52.45.17.89.34,1.34.5.45.17.9.34,1.35.5.46.17.9.33,1.36.5.46.16.92.32,1.37.48s.91.32,1.37.48c.4.14.8.27,1.2.41.4.13.8.27,1.2.4.4.13.8.26,1.21.39.41.13.81.26,1.22.39.41.13.82.25,1.22.39.41.12.82.25,1.23.37.41.13.82.25,1.23.37.42.12.83.25,1.25.37.4.12.8.23,1.2.34.37.1.75.21,1.12.32.38.1.75.21,1.13.32.38.1.75.2,1.13.3.38.1.76.21,1.14.3.38.1.76.2,1.14.3.38.1.77.19,1.15.3.39.1.77.19,1.15.29.39.09.77.19,1.16.28.39.1.77.19,1.17.28.37.08.74.17,1.11.26.36.08.72.17,1.08.25.36.08.72.17,1.09.24.36.08.72.17,1.09.24.37.08.73.16,1.1.24.36.08.73.15,1.09.23.37.08.74.16,1.1.23.37.08.74.14,1.1.22s.74.15,1.11.22c.37.08.74.14,1.11.22.37.07.74.14,1.12.21.35.07.7.13,1.06.2.36.06.7.12,1.06.19.36.06.71.12,1.07.19.36.06.72.12,1.07.19.36.06.72.12,1.07.18.36.06.72.12,1.08.18.36.06.72.12,1.08.17.36.06.72.12,1.09.17.36.06.72.11,1.09.17.36.05.73.1,1.09.16.36.06.73.1,1.09.16.36.05.72.1,1.07.15l1.07.14c.36.05.72.09,1.07.14s.72.1,1.07.14c.36.05.72.09,1.08.14.36.04.72.08,1.08.12.36.05.72.09,1.09.13.36.04.72.08,1.09.12.36.04.73.08,1.09.12.36.03.72.08,1.09.11.36.04.73.08,1.09.11.37.04.73.08,1.1.11.37.03.74.07,1.1.1.37.03.74.06,1.1.1.37.03.74.06,1.1.1.37.03.74.06,1.11.09.37.03.74.06,1.1.08.37.03.74.06,1.12.08.37.03.74.06,1.11.08.37.02.75.05,1.12.07.37.03.75.05,1.12.08.37.02.75.04,1.12.06.37.02.75.04,1.12.06.38.02.77.04,1.15.06.39.02.77.03,1.16.06.38.01.77.03,1.15.05.39.01.78.03,1.17.05.39.01.77.03,1.16.04.39.01.78.03,1.17.03.39.01.78.03,1.17.03.39.01.78.02,1.17.03.39.01.79.02,1.17.03l1.18.02c.39,0,.79,0,1.18.01.17,0,.34,0,.52,0h.7c.42,0,.84,0,1.25,0,.28,0,.56,0,.84,0Z"/>
  <path class="c" d="M320.48,87.08v69.81c0,.1,0,.21-.01.3,0,.21-.02.42-.03.63-.01.21-.02.42-.04.63-.01.21-.02.41-.04.63-.02.21-.04.41-.06.62-.02.21-.04.42-.06.63-.02.21-.04.41-.07.63-.02.21-.06.41-.08.62-.03.21-.06.41-.09.62-.03.21-.06.41-.1.62-.03.21-.07.41-.1.62-.04.2-.07.41-.11.61s-.08.4-.12.6c-.04.2-.08.4-.12.6s-.09.39-.13.59c-.05.2-.09.4-.14.59-.05.2-.1.4-.15.6-.05.19-.1.39-.16.59-.05.2-.11.4-.16.59-.06.2-.11.39-.17.59-.06.19-.12.39-.18.59-.06.19-.12.39-.19.59-.06.19-.12.39-.19.59-.06.19-.13.39-.2.58-.07.2-.14.39-.21.59-.07.19-.14.39-.22.58-.07.19-.14.39-.22.58-.07.19-.16.39-.23.58-.08.19-.16.39-.24.58-.08.19-.16.38-.25.57-.08.19-.16.39-.25.57-.09.19-.17.39-.26.57-.09.19-.17.39-.26.57-.09.19-.18.38-.27.57-.09.19-.19.38-.29.57-.09.19-.19.39-.29.58-.1.19-.2.39-.31.58-.1.19-.21.39-.31.58-.11.19-.21.39-.32.58-.11.19-.21.39-.32.57-.11.19-.22.39-.34.57-.11.19-.22.39-.34.57-.12.19-.23.39-.35.57-.12.19-.24.38-.36.56-.12.19-.24.38-.36.57-.12.19-.25.37-.37.56-.13.19-.26.39-.39.59-.14.2-.27.39-.41.59-.14.19-.27.39-.41.59-.14.2-.28.39-.42.59-.14.19-.29.39-.43.59-.14.19-.29.39-.44.58-.15.2-.3.39-.45.59-.15.19-.3.39-.45.58-.16.19-.31.39-.46.57-.16.19-.31.39-.47.58-.16.2-.32.4-.49.59-.17.21-.35.41-.53.62-.17.21-.36.41-.54.62-.17.2-.36.41-.54.61-.18.2-.37.41-.56.61-.19.21-.37.41-.56.61-.19.2-.38.4-.57.61-.19.2-.38.4-.58.6-.19.2-.39.4-.59.6s-.4.4-.6.6c-.22.21-.44.43-.65.65l-.69.66c-.23.22-.47.43-.7.65-.23.22-.47.44-.71.65-.24.22-.48.43-.72.65-.24.21-.49.43-.74.65-.24.21-.49.43-.74.64-.25.21-.5.43-.75.64-.25.21-.51.43-.76.63-.3.25-.6.5-.9.74-.3.24-.6.49-.92.73-.31.24-.61.48-.92.72-.31.24-.63.48-.94.72-.32.24-.64.48-.96.72-.32.23-.64.48-.97.71-.32.23-.65.47-.99.7-.36.25-.74.52-1.1.77-.41.28-.82.56-1.24.85-.41.28-.83.55-1.25.83-.42.28-.85.55-1.27.83-.43.27-.86.54-1.3.81-.43.27-.87.54-1.31.81-.49.3-.99.6-1.5.9-.59.34-1.18.69-1.78,1.03s-1.2.68-1.81,1.02c-.61.34-1.22.67-1.85,1.01-.62.34-1.25.66-1.88.99-.87.45-1.74.89-2.63,1.33-.97.48-1.95.96-2.95,1.43-.99.47-2,.93-3.01,1.38-1.7.76-3.43,1.51-5.19,2.23-6.28,2.59-12.93,4.93-19.91,7-1.91.57-3.86,1.12-5.82,1.65-1.2.32-2.41.63-3.63.94-1.04.26-2.09.52-3.14.77-1.05.25-2.11.5-3.18.74-.99.22-1.98.44-2.98.65-.73.15-1.46.3-2.2.45-.74.14-1.47.3-2.21.44-.74.14-1.48.28-2.23.42-.75.14-1.5.28-2.24.41-.75.13-1.5.26-2.26.39-.59.1-1.18.2-1.78.29-.58.1-1.16.19-1.75.28-.58.09-1.17.18-1.75.27-.59.08-1.17.17-1.76.25-.59.08-1.18.16-1.76.24-.59.08-1.18.16-1.78.23-.59.08-1.18.14-1.78.22-.49.06-.99.12-1.48.17-.49.06-.99.12-1.48.17-.49.06-.99.11-1.49.16-.49.06-.99.1-1.49.15-.5.06-1,.1-1.5.15-.51.05-1,.09-1.5.14-.51.04-1,.09-1.51.13l-1.52.12c-.46.03-.92.07-1.39.1-.44.03-.88.07-1.32.1-.44.03-.89.06-1.33.09-.44.03-.89.06-1.33.08-.44.03-.89.06-1.33.08-.44.02-.89.05-1.33.07-.45.03-.89.05-1.34.07-.45.02-.9.04-1.35.06-.45.01-.9.03-1.35.06-.45.01-.9.03-1.35.05-.41.01-.82.03-1.23.03-.41.01-.82.03-1.23.03-.41.01-.82.02-1.23.03-.41.01-.82.02-1.23.03-.42,0-.83.01-1.24.02-.42,0-.83,0-1.24.01-.42,0-.83,0-1.25,0-.55,0-1.1,0-1.65,0v-69.81c.55,0,1.1,0,1.65,0,.42,0,.83,0,1.25,0,.41,0,.82-.01,1.24-.01.41,0,.82-.01,1.24-.02.41,0,.82-.01,1.23-.03.41,0,.82-.01,1.23-.03.41,0,.82-.02,1.23-.03.41-.01.82-.02,1.23-.04.45-.01.9-.03,1.35-.05.45-.01.9-.03,1.35-.05.45-.02.9-.04,1.35-.06.45-.02.89-.05,1.34-.07.44-.02.89-.05,1.33-.07.45-.03.89-.06,1.33-.08.45-.03.89-.06,1.33-.08.44-.03.89-.06,1.33-.09.44-.03.89-.06,1.32-.1.47-.03.93-.07,1.39-.1l1.52-.12c.51-.04,1-.09,1.51-.13.5-.05,1-.1,1.5-.14.5-.05,1-.1,1.5-.15.5-.05,1-.1,1.49-.15.5-.06,1-.1,1.49-.16.49-.06.99-.11,1.48-.17.49-.06.99-.12,1.48-.17.59-.08,1.18-.14,1.78-.22.6-.08,1.19-.16,1.78-.23.59-.08,1.18-.17,1.76-.25.59-.08,1.18-.17,1.76-.25.59-.09,1.17-.18,1.75-.27.59-.09,1.17-.18,1.75-.28.59-.1,1.18-.19,1.78-.29.75-.12,1.51-.25,2.26-.39.75-.14,1.5-.27,2.24-.41.74-.14,1.48-.28,2.23-.43.74-.14,1.48-.29,2.21-.43.74-.15,1.47-.3,2.2-.46,1-.21,2-.43,2.98-.65,1.07-.24,2.13-.48,3.18-.74,1.05-.25,2.1-.51,3.14-.77,1.22-.31,2.43-.63,3.63-.95,1.96-.52,3.91-1.07,5.82-1.65,6.97-2.07,13.63-4.42,19.91-7,1.76-.72,3.49-1.47,5.19-2.23,1.02-.45,2.02-.92,3.01-1.38,1-.47,1.98-.94,2.95-1.43.89-.44,1.76-.88,2.63-1.33.63-.33,1.25-.66,1.88-.99.62-.33,1.23-.67,1.85-1.01.61-.34,1.22-.67,1.81-1.02s1.2-.69,1.78-1.04c.51-.3,1-.59,1.5-.9.44-.27.88-.54,1.31-.81.44-.27.87-.54,1.3-.82.42-.27.85-.54,1.27-.82.42-.28.84-.56,1.25-.84.42-.28.83-.56,1.24-.84.37-.25.74-.52,1.1-.77.33-.23.66-.47.99-.7.32-.24.65-.48.97-.71.32-.24.64-.48.96-.72.31-.23.63-.48.94-.72.31-.24.62-.48.92-.72.31-.24.62-.49.92-.73.31-.24.6-.49.9-.74.26-.21.51-.42.76-.63.26-.21.51-.43.75-.64.25-.21.5-.43.74-.64.25-.22.49-.43.74-.65.24-.22.48-.43.72-.65.24-.21.48-.43.71-.65.24-.22.47-.44.7-.65.23-.22.46-.44.69-.67.22-.21.44-.43.65-.64.2-.2.4-.4.6-.6.2-.2.39-.4.59-.6.2-.2.39-.4.58-.6.19-.21.39-.41.57-.61.19-.21.37-.41.56-.61.19-.2.37-.41.56-.61.18-.21.37-.41.54-.61.18-.21.36-.41.54-.62.18-.21.36-.41.53-.62.17-.2.33-.39.49-.59.16-.19.32-.39.47-.58.16-.19.31-.38.46-.57.15-.19.3-.39.45-.58.15-.19.3-.39.45-.59.15-.19.29-.39.44-.58.14-.2.29-.39.43-.59.14-.2.29-.39.42-.59.14-.19.27-.39.41-.59.14-.2.27-.4.41-.59.13-.2.26-.4.39-.59.12-.19.25-.38.37-.57.12-.19.24-.37.36-.56.12-.19.24-.38.36-.56.12-.19.23-.38.35-.57.11-.19.22-.38.34-.57.12-.19.22-.38.34-.57.11-.19.22-.38.32-.57.11-.19.21-.39.32-.58.11-.19.21-.39.31-.58.11-.19.21-.39.31-.58.1-.19.2-.39.29-.58.1-.19.19-.39.29-.57.09-.19.18-.38.27-.57.09-.19.17-.38.26-.57.09-.19.17-.38.26-.57.09-.19.17-.38.25-.57.09-.19.17-.38.25-.57.08-.19.16-.39.24-.58.07-.19.16-.39.23-.58.07-.19.15-.39.22-.58.07-.19.15-.39.22-.58.07-.19.14-.39.21-.59.07-.19.14-.39.2-.58.07-.2.13-.39.19-.59.07-.2.13-.39.19-.59.06-.2.12-.39.18-.59.06-.19.11-.39.17-.59.06-.2.11-.39.16-.59.06-.19.11-.39.16-.59.05-.19.1-.39.15-.59.05-.19.09-.39.14-.59.04-.2.09-.39.13-.59.04-.2.08-.4.12-.6.04-.2.08-.4.12-.6.04-.2.07-.41.11-.61.03-.2.07-.41.1-.61.04-.21.07-.41.1-.62.03-.21.06-.41.09-.62.02-.21.06-.41.08-.63.02-.21.04-.41.07-.62.02-.21.04-.41.06-.63.02-.21.04-.41.06-.62.02-.21.03-.42.04-.63.01-.21.02-.42.04-.63.01-.21.02-.41.03-.63,0-.1,0-.2.01-.3Z"/>
  <path class="b" d="M320.48,87.08c-1.54,46.99-74.42,84.42-162.77,83.6C69.36,169.85-1.02,131.1.52,84.11S74.94-.31,163.29.51c88.35.82,158.72,39.58,157.18,86.57ZM248.33,86.41c.85-25.8-37.79-47.08-86.3-47.53-48.51-.45-88.51,20.1-89.36,45.9-.85,25.8,37.79,47.08,86.3,47.53,48.51.45,88.51-20.1,89.36-45.9"/>
</svg>